<?xml version="1.0" encoding="UTF-8"?>
<svg data-bbox="0 0 2000 2000" viewBox="0 0 2000 2000" xmlns="http://www.w3.org/2000/svg" data-type="color">
    <g>
        <path fill="#ffffff" d="M2000 0v2000H0V0h2000z" data-color="1"/>
        <path d="M887.4 1413.4 659 1575.7c-79 56.1-188.4-.4-188.4-97.3V522c0-96.9 109.4-153.4 188.4-97.3L887.4 587c31.5 22.4 50.2 58.6 50.2 97.3v631.9c0 38.6-18.7 74.9-50.2 97.3Z" fill="#da291c" data-color="2"/>
        <path d="m1113.5 1413.4 228.4 162.3c79 56.1 188.4-.4 188.4-97.3V522c0-96.9-109.4-153.4-188.4-97.3L1113.5 587a119.31 119.31 0 0 0-50.2 97.3v631.9c0 38.6 18.7 74.9 50.2 97.3Z" fill="#da291c" data-color="2"/>
    </g>
</svg>
